<svg width="157" height="42" viewBox="0 0 50 42" fill="none" xmlns="http://www.w3.org/2000/svg">
<path d="M22.0247 33.1116C22.0606 29.4402 21.1298 26.4546 19.9458 26.443C18.7617 26.4314 17.7727 29.3983 17.7369 33.0697C17.701 36.7411 18.6318 39.7268 19.8158 39.7383C20.9999 39.7499 21.9888 36.783 22.0247 33.1116Z" fill="#FFC736"/>
<path d="M15.1576 32.2777C17.1728 29.2086 18.0041 26.1937 17.0144 25.5438C16.0245 24.8939 13.5884 26.855 11.5732 29.9241C9.55797 32.9933 8.72669 36.0081 9.71645 36.6581C10.7063 37.308 13.1423 35.3469 15.1576 32.2777Z" fill="#FFC736"/>
<path d="M9.82334 27.8744C13.1781 26.3822 15.5074 24.2955 15.0261 23.2136C14.5449 22.1317 11.4353 22.4643 8.08062 23.9565C4.72593 25.4487 2.39655 27.5354 2.87779 28.6174C3.35902 29.6993 6.46865 29.3666 9.82334 27.8744Z" fill="#FFC736"/>
<path d="M14.6235 20.1796C14.8037 19.0093 12.0079 17.6078 8.37911 17.0492C4.75022 16.4907 1.66243 16.9867 1.4823 18.157C1.30217 19.3273 4.09791 20.7287 7.72678 21.2873C11.3556 21.8459 14.4434 21.3499 14.6235 20.1796Z" fill="#FFC736"/>
<path d="M15.9264 17.3916C16.7106 16.5044 15.116 13.8141 12.3649 11.3826C9.61375 8.95121 6.74784 7.6994 5.9637 8.58665C5.17956 9.47392 6.77412 12.1642 9.52527 14.5957C12.2764 17.0271 15.1423 18.2789 15.9264 17.3916Z" fill="#FFC736"/>
<path d="M18.5211 15.7623C19.6605 15.4399 19.7737 12.3145 18.774 8.78164C17.7743 5.24877 16.0402 2.64618 14.9009 2.96859C13.7615 3.29099 13.6483 6.41631 14.648 9.94921C15.6477 13.482 17.3818 16.0847 18.5211 15.7623Z" fill="#FFC736"/>
<path d="M25.5667 10.0591C26.6359 6.54664 26.5844 3.4197 25.4516 3.07489C24.3188 2.73007 22.5338 5.29796 21.4646 8.81043C20.3954 12.3229 20.447 15.4498 21.5798 15.7946C22.7126 16.1394 24.4976 13.5716 25.5667 10.0591Z" fill="#FFC736"/>
<path d="M30.6011 14.8052C33.3993 12.428 35.0461 9.76935 34.2794 8.86698C33.5128 7.96458 30.6229 9.16015 27.8249 11.5373C25.0267 13.9145 23.3799 16.5731 24.1465 17.4755C24.9132 18.3779 27.803 17.1824 30.6011 14.8052Z" fill="#FFC736"/>
<path d="M32.2658 21.5215C35.905 21.0346 38.7278 19.6885 38.5707 18.5149C38.4138 17.3413 35.3363 16.7845 31.6971 17.2713C28.058 17.7582 25.2351 19.1043 25.3922 20.278C25.5492 21.4516 28.6266 22.0084 32.2658 21.5215Z" fill="#FFC736"/>
<path d="M36.9603 28.9528C37.4628 27.8806 35.175 25.7484 31.8504 24.1903C28.5258 22.6322 25.4234 22.2384 24.9209 23.3106C24.4184 24.3828 26.7062 26.515 30.0308 28.0731C33.3554 29.6311 36.4579 30.025 36.9603 28.9528Z" fill="#FFC736"/>
<path d="M29.9671 36.8639C30.9695 36.2337 30.1978 33.203 28.2435 30.0947C26.2892 26.9865 23.8922 24.9778 22.8898 25.608C21.8874 26.2382 22.6591 29.269 24.6134 32.3772C26.5678 35.4854 28.9647 37.4942 29.9671 36.8639Z" fill="#FFC736"/>
</svg>
